<?xml version="1.0" encoding="UTF-8"?>
<svg id="Layer_2" xmlns="http://www.w3.org/2000/svg" version="1.1" viewBox="0 0 278.5 89.6">
  <!-- Generator: Adobe Illustrator 30.2.1, SVG Export Plug-In . SVG Version: 2.1.1 Build 1)  -->
  <defs>
    <style>
      .st0 {
        fill: #fff;
      }
    </style>
  </defs>
  <g id="Layer_1-2">
    <path class="st0" d="M213.5,4.4l-.4-.4C210.6,1.4,207.1,0,203.5,0H75C71.3,0,67.9,1.4,65.3,4l-.4.4c-2.6,2.6-6,4-9.6,4H13.7c-12.2,0-18.2,14.7-9.7,23.3l42.2,42.2c2.6,2.6,6,4,9.6,4h60.3c3.6,0,7.1,1.4,9.6,4l3.8,3.8c2.6,2.6,6,4,9.6,4h0c3.6,0,7.1-1.4,9.6-4l3.8-3.8c2.6-2.6,6-4,9.6-4h60.3c3.6,0,7.1-1.4,9.6-4l42.2-42.2c8.6-8.6,2.5-23.3-9.6-23.3h-41.6c-3.6,0-7.1-1.4-9.6-4h0Z"/>
  </g>
</svg>