<?xml version="1.0" encoding="UTF-8"?>
<svg id="Layer_2" data-name="Layer 2" xmlns="http://www.w3.org/2000/svg" viewBox="0 0 547.33 148.25">
  <g id="Layer_1-2" data-name="Layer 1">
    <g>
      <path d="M491.34,60.59c-1.21-2.61-2.17-4.26-2.17-4.26,0,0,.78,1.91,2.17,4.26Z"/>
      <path d="M484.77,100.15c-2.59,1.8-4.47,3.59-4.47,3.59,0,0,1.94-1.33,4.47-3.59Z"/>
      <path d="M525.67,68.1c-6.18-8.48-.98-35.71.81-44.08-1.94,8.33-8.87,35.33-19.06,43.23-7.19,5.57-13.08-1.58-16.08-6.66,2.5,5.39,6.09,14.91,4.66,22.69-1.28,6.91-7.05,13.15-11.22,16.88,4.33-3.01,10.66-6.05,13.61-.84,3.77,6.65-3.24,48.95-3.24,48.95,0,0,7.01-33.43,17.22-35.81,10.36-2.42,18.08,13.13,18.08,13.13,0,0-3.01-6.83-3.75-13.98-.64-6.14-.51-12.79-.51-12.79,0,0-4.26,6.8-11.94,6.31-8.02-.51-10.23-17.05.71-20.63,10.03-3.28,11.22,7.67,11.22,7.67,0,0,1.71-5.85,6.99-10.74,5.31-4.92,14.16-9.86,14.16-9.86,0,0-14.75,6.04-21.66-3.44ZM520.72,75.94c-1.36,2.73-6.48,1.88-9.55,4.43-3.07,2.56-4.6,6.65-7.33,5.8-2.73-.85-2.73-6.82,4.43-11.94,7.51-5.36,13.81-1.02,12.45,1.71Z"/>
      <path d="M526.48,24.01c.36-1.56.55-2.47.55-2.47,0,0-.22.91-.55,2.47Z"/>
    </g>
    <path d="M19.13,40.09s6.82,22.05,15.6,22.12c13.38.11,29.75-31.08,29.75-31.08,0,0-8.18,13.16-10.18,20.68s-.88,12.61-.88,12.61c0,0-3.73-4.88-13.35,2.09-9.62,6.97-1.47,17.82,7.27,13.28,8.74-4.53,9.51-9.95,9.51-9.95,0,0,.63,6.14,3.21,9.29,2.99,3.65,8.63,4.53,8.63,4.53,0,0-5.09.77-9.18,3.98s-6.08,9.62-6.08,9.62c0,0-1.38-11.45-12-11.45-11.33,0-16.07,15.86-9.68,21.85s20.79-2.43,20.79-2.43c0,0-1.58,4.19-2.49,11.21-1.33,10.22,3.71,28.05,3.71,28.05,0,0-4.49-26.51-19.91-29.64C17.42,111.53,0,143.95,0,143.95c0,0,19.17-29.21,19.69-44.46.44-12.98-18.47-14.16-18.47-14.16,0,0,15.48-2.21,19.13-14.49s-1.22-30.75-1.22-30.75Z"/>
    <path d="M142.09,15.6s-6.27,17.12-8.05,27.58c-1.14,6.71.11,7.96.11,7.96,0,0-4.18,5.83-7.08,12.57-2.63,6.11-4.89,11.26-4.21,12.74s6.14-.45,8.76-3.07,2.9-6.91,2.9-6.91c0,0,2.79,3.16,7.56,1.68s8.87-4.78,8.87-4.78c0,0-5.57,4.91-8.07,6.94-4.61,3.72-4.21,6.68-4.21,6.68,0,0-3.87-1.11-6.94,1.28s-12.74,7.96-13.53,9.33-6.05,10.71-4.32,12.4c3.75,3.67,18.71-1.62,18.71-1.62,0,0-2.95,8.92-.91,16.38,1.84,6.7,12.34,17.4,12.34,17.4,0,0-12.71-14.06-27.84-16.82s-24.81,2.86-24.81,2.86c0,0,10.41-10.09,6.82-13.99-3.37-3.67-9.5,2.59-10.12,4.21-.41,1.06,1.82,1.93,1.82,1.93,0,0-4.55.45-10.69,4.44s-11.83,7.96-11.83,7.96c0,0,10.69-7.93,14.44-12.17,4.34-4.9,5.57-6.71,5.57-6.71,0,0-1.41,3.58.57,2.05,1.88-1.45,16.13-9.43,18.08-18.88,1.53-7.4-2.8-13.59-5.8-16.72-1.31-1.36-3.75-1.02-3.75-1.02,0,0,2.33-1.31,2.27-4.22-.05-2.45-4.15-6.67-4.15-6.67,0,0,4.47,4.91,6.32,6.22,1.67,1.18,3.53,1.02,3.53,1.02,0,0-1.27,1.01-1.75,2.9-.5,1.99,2.07,10.38,7.75,7.92,3.35-1.45,6.24-9.07,5.57-13.22-.28-1.76-4.09.4-4.09.4,0,0,4.18-2.59,13.42-14.1,8.3-10.35,16.72-33.92,16.72-33.92Z"/>
    <path d="M411.46,40.89s5.29,11.25,12.94,15.08,10.24,5.51,10.24,5.51c0,0-3.94-1.91-4.84,2.7-.9,4.61,1.58,11.48,3.38,16.09,1.8,4.61,7.09,16.88,7.09,16.88,0,0,5.29-17.33,6.86-23.63,1.58-6.3,3.49-9.79,1.69-12.6s-5.74-3.26-5.74-3.26c0,0,5.61.47,11.7-3.59,6.41-4.28,13.39-14.74,13.39-14.74,0,0-13.16,18.45-13.61,53.1-.13,9.69,8.33,18,8.33,18,0,0-8.21-11.59-12.94-5.85-9.33,11.33-9.11,31.5-9.11,31.5,0,0,1.01-18.56-9-33.19-4.87-7.12-12.38,7.09-12.38,7.09,0,0,9.34-10.13,5.4-31.62-5.03-27.44-13.39-37.47-13.39-37.47Z"/>
    <path d="M228.03,27.17s-8.64,16.49-14.35,24.18c-6.23,8.39-8.22,11.09-10.83,10.46-3.67-.89-8.93-5.68-8.93-5.68,0,0,12.63,9.65,14.44,20.84,1.8,11.19-1.71,24.36-7.22,25.26-4.5.74-9.56-5.59-10.47-16.24s3.07-24.36,3.07-24.36c0,0-2.23,7.43-8.3,12.45-4.69,3.88-18.95-1.8-18.95-1.8,0,0,15.43,2.98,15.88,14.35.37,9.22-9.2,11.28-9.2,11.28,0,0,8.57-.63,10.47,2.71,1.47,2.6,4.06,5.23,3.97,8.48-.07,2.58-13.89,39.16-13.89,39.16,0,0,10.92-31.26,20.75-32.66,3.16-.45,3.79.99,11.64.18,9.32-.96,6.85-12.84,12.99-12.54,3.7.18,11.64,6.04,11.64,6.04,0,0-16.06-9.65-15.07-17.95,1.45-12.1,19.04-11.82,19.04-11.82,0,0-9.02,1.92-13.35-4.87-9.55-14.98,6.68-47.46,6.68-47.46Z"/>
    <path d="M259.39,43.19s10.08,21.37,24.03,20.75c14.43-.64,37.77-63.95,37.77-63.95,0,0-25.21,55.46-17.83,64.98,6.19,7.98,42.21-9.8,42.21-9.8,0,0-20.25,8.03-30.23,14.76-8.8,5.95-12.87,11.9-12.87,11.9,0,0-2.84-4.36-8.78-8.47-5.33-3.69-10.24-4.51-11.99-.21-2.84,7.01,11.57,10.13,14.88,17.36s.48,8.44,3.98,15.79c4.77,10,20.41,30.71,20.41,30.71,0,0-18.65-28.23-36.01-30.81-16.12-2.4-37.56,40.32-37.56,40.32,0,0,26.69-38.68,17.98-46.71-6.05-5.58-24.18,10.13-24.18,10.13,0,0,17.36-12.4,19.84-18.39s1.34-6.23,1.34-6.23c0,0,13.54,17.83,18.5,11.57,4.96-6.25-1.03-9.77-5.48-12.71-4.44-2.95-11.42-1.03-11.42-1.03,0,0,4.24-5.46,4.86-13.73.9-11.96-9.46-26.23-9.46-26.23Z"/>
    <path d="M348.92,53.66s6.4,5.83,15.51,4.37c6.59-1.05,7.84-15.43,7.84-15.43,0,0,.13,13.71,8.45,15.71,7.51,1.81,14.04-5.5,14.04-5.5,0,0-4.42,4.98-4.91,8.65-.42,3.16,1.2,6.96,1.2,6.96,0,0-3.25-6.75-7.31-6.02-4.06.73-5.28,4.12-5.38,7.84-.1,3.72,1.93,34.61,1.93,36.31s1.02,5.01,5.18,4.21,8.12-7.52,8.12-7.52c0,0-2.44,5.5-1.42,10.35,1.02,4.85,4.57,11.81,4.57,11.81,0,0-5.84-11.54-14.16-9.93-9.37,1.82-8.53,13.4-8.53,13.4,0,0-.86-14.23-10.3-13.59-9.44.65-15.94,12.29-15.94,12.29,0,0,4.77-7.28,6.8-13.18,2.03-5.9-1.02-10.76-1.02-10.76,0,0,3.55,8.01,8.83,7.28,3.96-.55,6.9-2.99,6.9-5.98s-1.93-34.85-1.93-34.85c0,0,.2-5.74-4.57-7.52s-9.54,5.5-9.54,5.5c0,0,1.32-3.88,0-7.36s-4.37-7.04-4.37-7.04Z"/>
  </g>
</svg>