<?xml version="1.0" encoding="UTF-8"?>
<svg xmlns="http://www.w3.org/2000/svg" viewBox="320 0 80 148.25" fill="#ffffff">
  <path d="M348.92,53.66s6.4,5.83,15.51,4.37c6.59-1.05,7.84-15.43,7.84-15.43,0,0,.13,13.71,8.45,15.71,7.51,1.81,14.04-5.5,14.04-5.5,0,0-4.42,4.98-4.91,8.65-.42,3.16,1.2,6.96,1.2,6.96,0,0-3.25-6.75-7.31-6.02-4.06.73-5.28,4.12-5.38,7.84-.1,3.72,1.93,34.61,1.93,36.31s1.02,5.01,5.18,4.21,8.12-7.52,8.12-7.52c0,0-2.44,5.5-1.42,10.35,1.02,4.85,4.57,11.81,4.57,11.81,0,0-5.84-11.54-14.16-9.93-9.37,1.82-8.53,13.4-8.53,13.4,0,0-.86-14.23-10.3-13.59-9.44.65-15.94,12.29-15.94,12.29,0,0,4.77-7.28,6.8-13.18,2.03-5.9-1.02-10.76-1.02-10.76,0,0,3.55,8.01,8.83,7.28,3.96-.55,6.9-2.99,6.9-5.98s-1.93-34.85-1.93-34.85c0,0,.2-5.74-4.57-7.52s-9.54,5.5-9.54,5.5c0,0,1.32-3.88,0-7.36s-4.37-7.04-4.37-7.04Z"/>
</svg>
