<?xml version="1.0" encoding="UTF-8"?>
<svg xmlns="http://www.w3.org/2000/svg" viewBox="453 0 95 148.25" fill="#ffffff">
  <path d="M491.34,60.59c-1.21-2.61-2.17-4.26-2.17-4.26,0,0,.78,1.91,2.17,4.26Z"/>
  <path d="M484.77,100.15c-2.59,1.8-4.47,3.59-4.47,3.59,0,0,1.94-1.33,4.47-3.59Z"/>
  <path d="M525.67,68.1c-6.18-8.48-.98-35.71.81-44.08-1.94,8.33-8.87,35.33-19.06,43.23-7.19,5.57-13.08-1.58-16.08-6.66,2.5,5.39,6.09,14.91,4.66,22.69-1.28,6.91-7.05,13.15-11.22,16.88,4.33-3.01,10.66-6.05,13.61-.84,3.77,6.65-3.24,48.95-3.24,48.95,0,0,7.01-33.43,17.22-35.81,10.36-2.42,18.08,13.13,18.08,13.13,0,0-3.01-6.83-3.75-13.98-.64-6.14-.51-12.79-.51-12.79,0,0-4.26,6.8-11.94,6.31-8.02-.51-10.23-17.05.71-20.63,10.03-3.28,11.22,7.67,11.22,7.67,0,0,1.71-5.85,6.99-10.74,5.31-4.92,14.16-9.86,14.16-9.86,0,0-14.75,6.04-21.66-3.44ZM520.72,75.94c-1.36,2.73-6.48,1.88-9.55,4.43-3.07,2.56-4.6,6.65-7.33,5.8-2.73-.85-2.73-6.82,4.43-11.94,7.51-5.36,13.81-1.02,12.45,1.71Z"/>
  <path d="M526.48,24.01c.36-1.56.55-2.47.55-2.47,0,0-.22.91-.55,2.47Z"/>
</svg>
