<?xml version="1.0" encoding="UTF-8"?>
<svg xmlns="http://www.w3.org/2000/svg" viewBox="218 0 140 148.25" fill="#ffffff">
  <path d="M259.39,43.19s10.08,21.37,24.03,20.75c14.43-.64,37.77-63.95,37.77-63.95,0,0-25.21,55.46-17.83,64.98,6.19,7.98,42.21-9.8,42.21-9.8,0,0-20.25,8.03-30.23,14.76-8.8,5.95-12.87,11.9-12.87,11.9,0,0-2.84-4.36-8.78-8.47-5.33-3.69-10.24-4.51-11.99-.21-2.84,7.01,11.57,10.13,14.88,17.36s.48,8.44,3.98,15.79c4.77,10,20.41,30.71,20.41,30.71,0,0-18.65-28.23-36.01-30.81-16.12-2.4-37.56,40.32-37.56,40.32,0,0,26.69-38.68,17.98-46.71-6.05-5.58-24.18,10.13-24.18,10.13,0,0,17.36-12.4,19.84-18.39s1.34-6.23,1.34-6.23c0,0,13.54,17.83,18.5,11.57,4.96-6.25-1.03-9.77-5.48-12.71-4.44-2.95-11.42-1.03-11.42-1.03,0,0,4.24-5.46,4.86-13.73.9-11.96-9.46-26.23-9.46-26.23Z"/>
</svg>
