<?xml version="1.0" encoding="UTF-8"?>
<svg xmlns="http://www.w3.org/2000/svg" viewBox="148 0 100 148.25" fill="#ffffff">
  <path d="M228.03,27.17s-8.64,16.49-14.35,24.18c-6.23,8.39-8.22,11.09-10.83,10.46-3.67-.89-8.93-5.68-8.93-5.68,0,0,12.63,9.65,14.44,20.84,1.8,11.19-1.71,24.36-7.22,25.26-4.5.74-9.56-5.59-10.47-16.24s3.07-24.36,3.07-24.36c0,0-2.23,7.43-8.3,12.45-4.69,3.88-18.95-1.8-18.95-1.8,0,0,15.43,2.98,15.88,14.35.37,9.22-9.2,11.28-9.2,11.28,0,0,8.57-.63,10.47,2.71,1.47,2.6,4.06,5.23,3.97,8.48-.07,2.58-13.89,39.16-13.89,39.16,0,0,10.92-31.26,20.75-32.66,3.16-.45,3.79.99,11.64.18,9.32-.96,6.85-12.84,12.99-12.54,3.7.18,11.64,6.04,11.64,6.04,0,0-16.06-9.65-15.07-17.95,1.45-12.1,19.04-11.82,19.04-11.82,0,0-9.02,1.92-13.35-4.87-9.55-14.98,6.68-47.46,6.68-47.46Z"/>
</svg>
