<?xml version="1.0" encoding="UTF-8"?>
<svg xmlns="http://www.w3.org/2000/svg" viewBox="60 0 110 148.25" fill="#ffffff">
  <path d="M142.09,15.6s-6.27,17.12-8.05,27.58c-1.14,6.71.11,7.96.11,7.96,0,0-4.18,5.83-7.08,12.57-2.63,6.11-4.89,11.26-4.21,12.74s6.14-.45,8.76-3.07,2.9-6.91,2.9-6.91c0,0,2.79,3.16,7.56,1.68s8.87-4.78,8.87-4.78c0,0-5.57,4.91-8.07,6.94-4.61,3.72-4.21,6.68-4.21,6.68,0,0-3.87-1.11-6.94,1.28s-12.74,7.96-13.53,9.33-6.05,10.71-4.32,12.4c3.75,3.67,18.71-1.62,18.71-1.62,0,0-2.95,8.92-.91,16.38,1.84,6.7,12.34,17.4,12.34,17.4,0,0-12.71-14.06-27.84-16.82s-24.81,2.86-24.81,2.86c0,0,10.41-10.09,6.82-13.99-3.37-3.67-9.5,2.59-10.12,4.21-.41,1.06,1.82,1.93,1.82,1.93,0,0-4.55.45-10.69,4.44s-11.83,7.96-11.83,7.96c0,0,10.69-7.93,14.44-12.17,4.34-4.9,5.57-6.71,5.57-6.71,0,0-1.41,3.58.57,2.05,1.88-1.45,16.13-9.43,18.08-18.88,1.53-7.4-2.8-13.59-5.8-16.72-1.31-1.36-3.75-1.02-3.75-1.02,0,0,2.33-1.31,2.27-4.22-.05-2.45-4.15-6.67-4.15-6.67,0,0,4.47,4.91,6.32,6.22,1.67,1.18,3.53,1.02,3.53,1.02,0,0-1.27,1.01-1.75,2.9-.5,1.99,2.07,10.38,7.75,7.92,3.35-1.45,6.24-9.07,5.57-13.22-.28-1.76-4.09.4-4.09.4,0,0,4.18-2.59,13.42-14.1,8.3-10.35,16.72-33.92,16.72-33.92Z"/>
</svg>
