<?xml version="1.0" encoding="UTF-8"?>
<svg xmlns="http://www.w3.org/2000/svg" viewBox="0 0 100 148.25" fill="#ffffff">
  <path d="M19.13,40.09s6.82,22.05,15.6,22.12c13.38.11,29.75-31.08,29.75-31.08,0,0-8.18,13.16-10.18,20.68s-.88,12.61-.88,12.61c0,0-3.73-4.88-13.35,2.09-9.62,6.97-1.47,17.82,7.27,13.28,8.74-4.53,9.51-9.95,9.51-9.95,0,0,.63,6.14,3.21,9.29,2.99,3.65,8.63,4.53,8.63,4.53,0,0-5.09.77-9.18,3.98s-6.08,9.62-6.08,9.62c0,0-1.38-11.45-12-11.45-11.33,0-16.07,15.86-9.68,21.85s20.79-2.43,20.79-2.43c0,0-1.58,4.19-2.49,11.21-1.33,10.22,3.71,28.05,3.71,28.05,0,0-4.49-26.51-19.91-29.64C17.42,111.53,0,143.95,0,143.95c0,0,19.17-29.21,19.69-44.46.44-12.98-18.47-14.16-18.47-14.16,0,0,15.48-2.21,19.13-14.49s-1.22-30.75-1.22-30.75Z"/>
</svg>
