<?xml version="1.0" encoding="UTF-8"?>
<svg xmlns="http://www.w3.org/2000/svg" viewBox="380 0 95 148.25" fill="#ffffff">
  <path d="M411.46,40.89s5.29,11.25,12.94,15.08,10.24,5.51,10.24,5.51c0,0-3.94-1.91-4.84,2.7-.9,4.61,1.58,11.48,3.38,16.09,1.8,4.61,7.09,16.88,7.09,16.88,0,0,5.29-17.33,6.86-23.63,1.58-6.3,3.49-9.79,1.69-12.6s-5.74-3.26-5.74-3.26c0,0,5.61.47,11.7-3.59,6.41-4.28,13.39-14.74,13.39-14.74,0,0-13.16,18.45-13.61,53.1-.13,9.69,8.33,18,8.33,18,0,0-8.21-11.59-12.94-5.85-9.33,11.33-9.11,31.5-9.11,31.5,0,0,1.01-18.56-9-33.19-4.87-7.12-12.38,7.09-12.38,7.09,0,0,9.34-10.13,5.4-31.62-5.03-27.44-13.39-37.47-13.39-37.47Z"/>
</svg>
