<?xml version="1.0" encoding="UTF-8"?>
<svg id="Layer_1" xmlns="http://www.w3.org/2000/svg" version="1.1" viewBox="0 0 1080 160">
  <!-- Generator: Adobe Illustrator 30.2.1, SVG Export Plug-In . SVG Version: 2.1.1 Build 1)  -->
  <defs>
    <style>
      .st0 {
        fill: #fff;
      }
    </style>
  </defs>
  <path class="st0" d="M831.6,39.5l-1.2-1.2c-2.6-2.6-6-4-9.6-4h-75.6c-3.6,0-7.1,1.4-9.6,4h0c-2.6,2.6-6,4-9.6,4h-115c-3.6,0-7.1-1.4-9.6-4l-4.6-4.6c-2.6-2.6-6-4-9.6-4l-62.4-.3h-9c-3.6,0-7.1,1.4-9.6,4l-4.9,4.9c-2.6,2.6-6,4-9.6,4h-115c-3.6,0-7.1-1.4-9.6-4h0c-2.6-2.6-6-4-9.6-4h-75.6c-3.6,0-7.1,1.4-9.6,4l-1.2,1.2c-2.6,2.6-6,4-9.6,4h-97.1c-12.1,0-18.2,14.7-9.6,23.3l51,51c2.6,2.6,6,4,9.6,4h44.4c3.6,0,7.1,1.4,9.6,4l19.8,19.8c2.6,2.6,6,4,9.6,4h110.9c3.6,0,7.1-1.4,9.6-4l29.4-29.4c2.6-2.6,6-4,9.6-4h12.6c3.6,0,7.1,1.4,9.6,4l1.9,1.9c2.6,2.6,6,4,9.6,4h118.4c3.6,0,7.1-1.4,9.6-4l1.9-1.9c2.6-2.6,6-4,9.6-4h12.7c3.6,0,7.1,1.4,9.6,4l29.4,29.4c2.6,2.6,6,4,9.6,4h110.9c3.6,0,7.1-1.4,9.6-4l19.8-19.8c2.6-2.6,6-4,9.6-4h44.4c3.6,0,7.1-1.4,9.6-4l51-51c8.6-8.6,2.5-23.3-9.6-23.3h-97.1c-3.6,0-7.1-1.4-9.6-4h0Z"/>
</svg>