<?xml version="1.0" encoding="UTF-8"?>
<svg id="Layer_2" xmlns="http://www.w3.org/2000/svg" version="1.1" viewBox="0 0 500.1 80.9">
  <!-- Generator: Adobe Illustrator 30.2.1, SVG Export Plug-In . SVG Version: 2.1.1 Build 1)  -->
  <defs>
    <style>
      .st0 {
        fill: #fff;
      }
    </style>
  </defs>
  <g id="Layer_1-2">
    <path class="st0" d="M412,7.8h79.3c8,.1,11.9,10,5.9,15.4l-46.4,41.9c-1.6,1.5-3.7,2.3-5.9,2.3h-34.5c-2.5,0-4.8,1-6.5,2.9l-7,7.7c-1.7,1.8-4,2.9-6.5,2.9h-29c-2.3,0-4.6-.9-6.2-2.6h-.1c-1.6-1.8-3.9-2.7-6.2-2.7h-16c-2.3,0-4.6.9-6.2,2.6h0c-1.6,1.7-3.9,2.6-6.2,2.6h-140.2c-2.3,0-4.6-.9-6.2-2.6h0c-1.6-1.7-3.9-2.6-6.2-2.6h-16c-2.3,0-4.6.9-6.2,2.6h-.1c-1.6,1.8-3.9,2.7-6.2,2.7h-29.6c-2.5,0-4.8-1-6.5-2.9l-7-7.7c-1.7-1.8-4-2.9-6.5-2.9h-34.5c-2.2,0-4.3-.8-5.9-2.3L2.9,23.3C-3,17.9.8,8,8.8,8h79.3c0-.1,27.6-.3,27.6-.3h37.5c2.3,0,4.6-.9,6.2-2.6l2.6-2.6c1.6-1.6,3.9-2.6,6.2-2.6h164.2c2.3,0,4.6.9,6.2,2.6l2.6,2.6c1.6,1.7,3.9,2.6,6.2,2.6h64.5q0,.1,0,.1Z"/>
  </g>
</svg>