<?xml version="1.0" encoding="UTF-8"?>
<svg id="Layer_2" xmlns="http://www.w3.org/2000/svg" version="1.1" viewBox="0 0 324.8 54.8">
  <!-- Generator: Adobe Illustrator 30.2.1, SVG Export Plug-In . SVG Version: 2.1.1 Build 1)  -->
  <defs>
    <style>
      .st0 {
        fill: #fff;
      }
    </style>
  </defs>
  <g id="Layer_1-2">
    <path class="st0" d="M293,5.3h25.8c5.4,0,8,6.7,4,10.4l-40.1,37.5c-1.1,1-2.6,1.6-4.1,1.6h-41c-1.6,0-3.1-.6-4.2-1.8h0c-1.1-1.2-2.6-1.8-4.2-1.8h-10.9c-1.6,0-3.1.6-4.2,1.8h0c-1.1,1.1-2.6,1.8-4.2,1.8h-95c-1.6,0-3.1-.6-4.2-1.8h0c-1.1-1.1-2.6-1.8-4.2-1.8h-10.8c-1.6,0-3.1.6-4.2,1.8h0c-1.1,1.2-2.6,1.8-4.2,1.8h-41c-1.5,0-3-.6-4.1-1.6L1.9,15.7C-2,12,.6,5.4,6,5.4h25.8c0,0,39.4-.2,39.4-.2h25.4c1.6,0,3.1-.6,4.2-1.8l1.7-1.7c1.1-1.1,2.6-1.8,4.2-1.8h111.2c1.6,0,3.1.6,4.2,1.8l1.7,1.7c1.1,1.1,2.6,1.8,4.2,1.8h64.8c0,0,0,.1,0,.1Z"/>
  </g>
</svg>