<?xml version="1.0" encoding="UTF-8"?>
<svg id="Layer_2" xmlns="http://www.w3.org/2000/svg" version="1.1" viewBox="0 0 882.1 255.8">
  <!-- Generator: Adobe Illustrator 30.2.1, SVG Export Plug-In . SVG Version: 2.1.1 Build 1)  -->
  <defs>
    <style>
      .st0 {
        fill: #fff;
      }
    </style>
  </defs>
  <g id="Layer_1-2">
    <path class="st0" d="M679.9,60.5l-.8-.8c-1.5-1.5-3.6-2.4-5.7-2.4h-46.4c-2.2,0-4.2.9-5.7,2.4h-.1c-1.5,1.7-3.6,2.5-5.7,2.5h-70.5c-2.2,0-4.2-.9-5.7-2.4l-.4-.4c-1.5-1.5-3.6-2.4-5.7-2.4h-184.7c-2.2,0-4.2.9-5.7,2.4l-.4.4c-1.5,1.5-3.6,2.4-5.7,2.4h-70.5c-2.2,0-4.2-.9-5.7-2.4h-.1c-1.5-1.7-3.6-2.5-5.7-2.5h-46.4c-2.2,0-4.2.9-5.7,2.4l-.8.8c-1.5,1.5-3.6,2.4-5.7,2.4h-46.2c-7.1,0-10.8,8.4-5.9,13.6l18,19.4c1.5,1.7,3.7,2.6,5.9,2.6h27.2c2.2,0,4.2.9,5.7,2.4l12.2,12.2c1.5,1.5,3.6,2.4,5.7,2.4h68c2.2,0,4.2-.9,5.7-2.4l1.3-1.3c1.5-1.5,3.6-2.4,5.7-2.4h24.7c2.2,0,4.2.9,5.7,2.4l1.3,1.3c1.5,1.5,3.6,2.4,5.7,2.4h207.9c2.2,0,4.2-.9,5.7-2.4l1.3-1.3c1.5-1.5,3.6-2.4,5.7-2.4h24.7c2.2,0,4.2.9,5.7,2.4l1.3,1.3c1.5,1.5,3.6,2.4,5.7,2.4h68c2.2,0,4.2-.9,5.7-2.4l12.2-12.2c1.5-1.5,3.6-2.4,5.7-2.4h27.2c2.2,0,4.3-.9,5.9-2.5l18.5-19.4c4.9-5.2,1.3-13.7-5.9-13.7h-46.8c-2.2,0-4.2-.9-5.7-2.4h0Z"/>
    <path class="st0" d="M660.5,122.7l-1-1c-1.6-1.6-3.8-2.5-6.1-2.5H229.1c-2.3,0-4.4.9-6.1,2.5l-1,1c-1.6,1.6-3.8,2.5-6.1,2.5h-33.3c-7.6,0-11.5,9.2-6.1,14.6l32.7,32.7c1.6,1.6,3.8,2.5,6.1,2.5h185.5c2.3,0,4.4.9,6.1,2.5l3.4,3.4c1.6,1.6,3.8,2.5,6.1,2.5h49.4c2.3,0,4.4-.9,6.1-2.5l3.4-3.4c1.6-1.6,3.8-2.5,6.1-2.5h185.8c2.3,0,4.4-.9,6.1-2.5l32.7-32.7c5.4-5.4,1.6-14.6-6.1-14.6h-33.3c-2.3,0-4.4-.9-6.1-2.5h0Z"/>
    <path class="st0" d="M680.5,8.7h-112.3c-2.4,0-4.7-1-6.5-2.7l-3.3-3.3c-1.7-1.7-4-2.7-6.5-2.7h-222.2c-2.4,0-4.7,1-6.5,2.7l-3.3,3.3c-1.7,1.7-4,2.7-6.5,2.7h-112.4c-2.4,0-4.7,1-6.5,2.7l-23.6,23.6c-5.7,5.7-1.7,15.6,6.5,15.6h75.8c2.4,0,4.7,1,6.5,2.7l1.2,1.2c1.7,1.7,4,2.7,6.5,2.7h68.8c2.4,0,4.7-1,6.5-2.7l3.8-3.8c1.7-1.7,4-2.7,6.5-2.7h21.9c2.4,0,4.7,1,6.5,2.7h0c1.7,1.7,4,2.7,6.5,2.7h106.8c2.4,0,4.7-1,6.5-2.7h0c1.7-1.7,4-2.7,6.5-2.7h21.9c2.4,0,4.7,1,6.5,2.7l3.8,3.8c1.7,1.7,4,2.7,6.5,2.7h68.8c2.4,0,4.7-1,6.5-2.7l1.2-1.2c1.7-1.7,4-2.7,6.5-2.7h75.2c8.1,0,12.2-9.8,6.5-15.6l-23.6-23.6c-1.7-1.7-4-2.7-6.5-2.7h0Z"/>
  </g>
</svg>