<?xml version="1.0" encoding="UTF-8"?>
<svg id="Layer_1" xmlns="http://www.w3.org/2000/svg" version="1.1" viewBox="0 0 382.9 251.9">
  <!-- Generator: Adobe Illustrator 30.2.1, SVG Export Plug-In . SVG Version: 2.1.1 Build 1)  -->
  <defs>
    <style>
      .st0 {
        fill: #fff;
      }
    </style>
  </defs>
  <path class="st0" d="M105.6,55.6h16.5c1.6,0,3.1-.6,4.2-1.8l4.5-4.5c1.1-1.1,2.6-1.8,4.2-1.8h9c1.6,0,3.1.6,4.2,1.8l.2.2c1.1,1.1,2.6,1.8,4.2,1.8h75.2c1.6,0,3.1-.6,4.2-1.8l.2-.2c1.1-1.1,2.6-1.8,4.2-1.8h9c1.6,0,3.1.6,4.2,1.8l4.5,4.5c1.1,1.1,2.6,1.8,4.2,1.8h16.5c1.6,0,3.1-.6,4.2-1.8l3.8-3.8c1.1-1.1,2.6-1.7,4.2-1.8h59.7c5.3,0,8-6.6,4.2-10.3l-28.3-28.3c-1.1-1.1-2.6-1.8-4.2-1.8h-62.9c-1.6,0-3.1-.6-4.2-1.8l-2.1-2.1c-1.1-1.1-2.6-1.8-4.2-1.8h-109.7c-1.6,0-3.1.6-4.2,1.8l-2.1,2.1c-1.1,1.1-2.6,1.8-4.2,1.8h-62.9c-1.6,0-3.1.6-4.2,1.8l-28.3,28.3c-3.8,3.8-1.1,10.2,4.2,10.2h59.7c1.6,0,3.1.8,4.2,1.9l3.8,3.8c1.1,1.1,2.6,1.8,4.2,1.8h0Z"/>
  <path class="st0" d="M65.2,101.9l4.8,4.2c1.1,1.2,2.7,1.9,4.4,1.9h40.7c1.6,0,3.1-.6,4.2-1.8h0c1.1-1.2,2.6-1.8,4.2-1.8h10.9c1.6,0,3.1.6,4.2,1.8h0c1.1,1.1,2.6,1.8,4.2,1.8h95c1.6,0,3.1-.6,4.2-1.8h0c1.1-1.1,2.6-1.8,4.2-1.8h10.8c1.6,0,3.1.6,4.2,1.8h0c1.1,1.2,2.6,1.8,4.2,1.8h40.7c1.7,0,3.3-.7,4.4-1.9l4.8-4.2c1.1-1.2,2.7-1.9,4.4-1.9h23.4c1.5,0,2.9-.6,4-1.5l31.4-28.4c4-3.7,1.5-10.4-4-10.4h-51.3c-1.6,0-3.1-.7-4.2-1.8l-1.7-1.7c-1.1-1.1-2.6-1.8-4.2-1.8h-24.3c-1.6,0-3.1.6-4.2,1.8l-1.5,1.5c-1.1,1.1-2.6,1.8-4.2,1.8h-22.9c-1.6,0-3.1-.6-4.2-1.8l-1.7-1.7c-1.1-1.1-2.6-1.8-4.2-1.8h-111.2c-1.6,0-3.1.6-4.2,1.8l-1.7,1.7c-1.1,1.1-2.6,1.8-4.2,1.8h-22.9c-1.6,0-3.1-.6-4.2-1.8l-1.5-1.5c-1.1-1.1-2.6-1.8-4.2-1.8h-24.3c-1.6,0-3.1.6-4.2,1.8l-1.6,1.7c-1.1,1.1-2.6,1.7-4.2,1.8H6c-5.5,0-8,6.8-4,10.5l31.4,28.4c1.1,1,2.5,1.5,4,1.5h23.4c1.7,0,3.3.7,4.4,1.9h0Z"/>
  <path class="st0" d="M310.2,113.3c-1.1-1.1-2.6-1.8-4.2-1.8H74.6c-1.6,0-3.1.6-4.2,1.8l-2.1,2.1c-1.1,1.1-2.6,1.8-4.2,1.8H30.7c-5.3,0-8,6.4-4.2,10.2l35.1,35.1c1.1,1.1,2.6,1.8,4.2,1.8h98.4c1.6,0,3.1.6,4.2,1.8l.9.9c1.1,1.1,2.6,1.8,4.2,1.8h33.7c1.6,0,3.1-.6,4.2-1.8l.9-.9c1.1-1.1,2.6-1.8,4.2-1.8h98.4c1.6,0,3.1-.6,4.2-1.8l35.1-35.1c3.8-3.8,1.1-10.2-4.2-10.2h-33.4c-1.6,0-3.1-.6-4.2-1.8l-2.1-2.1h0Z"/>
</svg>