<?xml version="1.0" encoding="UTF-8"?>
<svg id="Layer_1" xmlns="http://www.w3.org/2000/svg" version="1.1" viewBox="0 0 1080 251.9">
  <!-- Generator: Adobe Illustrator 30.2.1, SVG Export Plug-In . SVG Version: 2.1.1 Build 1)  -->
  <defs>
    <style>
      .st0 {
        fill: #fff;
      }
    </style>
  </defs>
  <path class="st0" d="M931.2,18.9l-1.2-1.2c-2.6-2.6-6-4-9.6-4h-75.6c-3.6,0-7.1,1.4-9.6,4h0c-2.6,2.6-6,4-9.6,4h-115c-3.6,0-7.1-1.4-9.6-4l-.4-.4c-2.6-2.6-6-4-9.6-4h-301.8c-3.6,0-7.1,1.4-9.6,4l-.4.4c-2.6,2.6-6,4-9.6,4h-115c-3.6,0-7.1-1.4-9.6-4h0c-2.6-2.6-6-4-9.6-4h-75.6c-3.6,0-7.1,1.4-9.6,4l-1.2,1.2c-2.6,2.6-6,4-9.6,4H42c-12.1,0-18.2,14.7-9.6,23.3l51,51c2.6,2.6,6,4,9.6,4h44.4c3.6,0,7.1,1.4,9.6,4l19.8,19.8c2.6,2.6,6,4,9.6,4h110.9c3.6,0,7.1-1.4,9.6-4l1.9-1.9c2.6-2.6,6-4,9.6-4h40.1c3.6,0,7.1,1.4,9.6,4l1.9,1.9c2.6,2.6,6,4,9.6,4h339.9c3.6,0,7.1-1.4,9.6-4l1.9-1.9c2.6-2.6,6-4,9.6-4h40.1c3.6,0,7.1,1.4,9.6,4l1.9,1.9c2.6,2.6,6,4,9.6,4h110.9c3.6,0,7.1-1.4,9.6-4l19.8-19.8c2.6-2.6,6-4,9.6-4h44.4c3.6,0,7.1-1.4,9.6-4l51-51c8.6-8.6,2.5-23.3-9.6-23.3h-97.1c-3.6,0-7.1-1.4-9.6-4h0Z"/>
  <path class="st0" d="M625.5,153.3l-.4-.4c-2.6-2.6-6-4-9.6-4h-128.5c-3.6,0-7.1,1.4-9.6,4l-.4.4c-2.6,2.6-6,4-9.6,4h-41.6c-12.1,0-18.2,14.7-9.6,23.3l42.2,42.2c2.6,2.6,6,4,9.6,4h60.3c3.6,0,7.1,1.4,9.6,4l3.8,3.8c2.6,2.6,6,4,9.6,4h0c3.6,0,7.1-1.4,9.6-4l3.8-3.8c2.6-2.6,6-4,9.6-4h60.3c3.6,0,7.1-1.4,9.6-4l42.2-42.2c8.6-8.6,2.5-23.3-9.6-23.3h-41.6c-3.6,0-7.1-1.4-9.6-4Z"/>
</svg>